<mxfile host="65bd71144e" modified="2021-02-25T13:21:24.265Z" agent="5.0 (Windows NT 10.0; Win64; x64) AppleWebKit/537.36 (KHTML, like Gecko) Code/1.53.2 Chrome/87.0.4280.141 Electron/11.2.1 Safari/537.36" etag="upvZFMkdsCyxJOEfCHqf" version="14.2.4" type="embed">
    <diagram id="QnbtAuHqYBGgvEtmT_dH" name="PÃ¡gina-1">
        <mxGraphModel dx="1352" dy="710" grid="1" gridSize="10" guides="1" tooltips="1" connect="1" arrows="1" fold="1" page="1" pageScale="1" pageWidth="827" pageHeight="1169" math="0" shadow="0">
            <root>
                <mxCell id="0"/>
                <mxCell id="1" parent="0"/>
                <mxCell id="oQcBj8w5AE9Hj1fg7Yda-2" style="edgeStyle=orthogonalEdgeStyle;rounded=0;orthogonalLoop=1;jettySize=auto;html=1;curved=1;" parent="1" source="pgPtPrTT9wLTxzrEdJcM-4" target="oQcBj8w5AE9Hj1fg7Yda-1" edge="1">
                    <mxGeometry relative="1" as="geometry"/>
                </mxCell>
                <mxCell id="pgPtPrTT9wLTxzrEdJcM-4" value="getProcess" style="shape=hexagon;perimeter=hexagonPerimeter2;whiteSpace=wrap;html=1;fixedSize=1;shadow=0;fontFamily=Helvetica;fontSize=12;fontColor=#000000;align=center;strokeColor=#000000;fillColor=#ffffff;sketch=0;" parent="1" vertex="1">
                    <mxGeometry x="280" y="80" width="80" height="80" as="geometry"/>
                </mxCell>
                <mxCell id="oQcBj8w5AE9Hj1fg7Yda-19" style="edgeStyle=orthogonalEdgeStyle;rounded=0;orthogonalLoop=1;jettySize=auto;html=1;" parent="1" source="pgPtPrTT9wLTxzrEdJcM-8" target="oQcBj8w5AE9Hj1fg7Yda-18" edge="1">
                    <mxGeometry relative="1" as="geometry"/>
                </mxCell>
                <mxCell id="pgPtPrTT9wLTxzrEdJcM-8" value="getMany&lt;br&gt;Vacancy" style="ellipse;whiteSpace=wrap;html=1;aspect=fixed;fillColor=#fff2cc;strokeColor=#d6b656;fontColor=#000000;" parent="1" vertex="1">
                    <mxGeometry x="880" y="480" width="80" height="80" as="geometry"/>
                </mxCell>
                <mxCell id="oQcBj8w5AE9Hj1fg7Yda-4" style="edgeStyle=orthogonalEdgeStyle;rounded=0;orthogonalLoop=1;jettySize=auto;html=1;" parent="1" source="oQcBj8w5AE9Hj1fg7Yda-1" target="oQcBj8w5AE9Hj1fg7Yda-3" edge="1">
                    <mxGeometry relative="1" as="geometry"/>
                </mxCell>
                <mxCell id="oQcBj8w5AE9Hj1fg7Yda-1" value="getManyCall" style="ellipse;whiteSpace=wrap;html=1;aspect=fixed;fillColor=#f8cecc;strokeColor=#b85450;" parent="1" vertex="1">
                    <mxGeometry x="400" y="200" width="80" height="80" as="geometry"/>
                </mxCell>
                <mxCell id="oQcBj8w5AE9Hj1fg7Yda-5" style="edgeStyle=orthogonalEdgeStyle;rounded=0;orthogonalLoop=1;jettySize=auto;html=1;curved=1;fillColor=#f8cecc;strokeColor=#b85450;entryX=0.5;entryY=0;entryDx=0;entryDy=0;" parent="1" source="oQcBj8w5AE9Hj1fg7Yda-3" target="pgPtPrTT9wLTxzrEdJcM-4" edge="1">
                    <mxGeometry relative="1" as="geometry">
                        <Array as="points">
                            <mxPoint x="250" y="400"/>
                            <mxPoint x="250" y="50"/>
                            <mxPoint x="320" y="50"/>
                        </Array>
                    </mxGeometry>
                </mxCell>
                <mxCell id="oQcBj8w5AE9Hj1fg7Yda-7" style="edgeStyle=orthogonalEdgeStyle;rounded=0;orthogonalLoop=1;jettySize=auto;html=1;curved=1;fillColor=#f8cecc;strokeColor=#b85450;" parent="1" source="oQcBj8w5AE9Hj1fg7Yda-3" target="oQcBj8w5AE9Hj1fg7Yda-6" edge="1">
                    <mxGeometry relative="1" as="geometry"/>
                </mxCell>
                <mxCell id="oQcBj8w5AE9Hj1fg7Yda-12" style="edgeStyle=orthogonalEdgeStyle;rounded=0;orthogonalLoop=1;jettySize=auto;html=1;curved=1;fillColor=#f8cecc;strokeColor=#b85450;" parent="1" source="oQcBj8w5AE9Hj1fg7Yda-3" target="pgPtPrTT9wLTxzrEdJcM-8" edge="1">
                    <mxGeometry relative="1" as="geometry"/>
                </mxCell>
                <mxCell id="oQcBj8w5AE9Hj1fg7Yda-3" value="getCall" style="shape=hexagon;perimeter=hexagonPerimeter2;whiteSpace=wrap;html=1;fixedSize=1;fontFamily=Helvetica;fontSize=12;fontColor=#000000;align=center;strokeColor=#b85450;fillColor=#f8cecc;" parent="1" vertex="1">
                    <mxGeometry x="400" y="360" width="80" height="80" as="geometry"/>
                </mxCell>
                <mxCell id="oQcBj8w5AE9Hj1fg7Yda-9" style="edgeStyle=orthogonalEdgeStyle;rounded=0;orthogonalLoop=1;jettySize=auto;html=1;entryX=0.5;entryY=0;entryDx=0;entryDy=0;" parent="1" source="oQcBj8w5AE9Hj1fg7Yda-6" target="oQcBj8w5AE9Hj1fg7Yda-8" edge="1">
                    <mxGeometry relative="1" as="geometry"/>
                </mxCell>
                <mxCell id="oQcBj8w5AE9Hj1fg7Yda-6" value="getMany&lt;br&gt;Calendar" style="ellipse;whiteSpace=wrap;html=1;aspect=fixed;fillColor=#dae8fc;strokeColor=#6c8ebf;fontColor=#000000;" parent="1" vertex="1">
                    <mxGeometry x="520" y="480" width="80" height="80" as="geometry"/>
                </mxCell>
                <mxCell id="oQcBj8w5AE9Hj1fg7Yda-14" style="edgeStyle=orthogonalEdgeStyle;rounded=0;orthogonalLoop=1;jettySize=auto;html=1;fillColor=#dae8fc;strokeColor=#6c8ebf;" parent="1" source="oQcBj8w5AE9Hj1fg7Yda-8" target="oQcBj8w5AE9Hj1fg7Yda-13" edge="1">
                    <mxGeometry relative="1" as="geometry"/>
                </mxCell>
                <mxCell id="oQcBj8w5AE9Hj1fg7Yda-41" style="edgeStyle=orthogonalEdgeStyle;rounded=0;orthogonalLoop=1;jettySize=auto;html=1;strokeColor=#7EA6E0;curved=1;exitX=0.5;exitY=1;exitDx=0;exitDy=0;" parent="1" source="oQcBj8w5AE9Hj1fg7Yda-8" target="oQcBj8w5AE9Hj1fg7Yda-40" edge="1">
                    <mxGeometry relative="1" as="geometry">
                        <Array as="points">
                            <mxPoint x="560" y="690"/>
                            <mxPoint x="720" y="690"/>
                        </Array>
                    </mxGeometry>
                </mxCell>
                <mxCell id="1A5X8RSsKZ8tpH-_XPOV-6" style="edgeStyle=orthogonalEdgeStyle;curved=1;rounded=0;orthogonalLoop=1;jettySize=auto;html=1;exitX=0.5;exitY=1;exitDx=0;exitDy=0;entryX=0.5;entryY=0;entryDx=0;entryDy=0;fillColor=#dae8fc;strokeColor=#6c8ebf;" parent="1" source="oQcBj8w5AE9Hj1fg7Yda-8" target="oQcBj8w5AE9Hj1fg7Yda-8" edge="1">
                    <mxGeometry relative="1" as="geometry">
                        <mxPoint x="420" y="610" as="targetPoint"/>
                        <Array as="points">
                            <mxPoint x="560" y="700"/>
                            <mxPoint x="500" y="700"/>
                            <mxPoint x="500" y="580"/>
                            <mxPoint x="560" y="580"/>
                        </Array>
                    </mxGeometry>
                </mxCell>
                <mxCell id="oQcBj8w5AE9Hj1fg7Yda-8" value="getCalendar" style="shape=hexagon;perimeter=hexagonPerimeter2;whiteSpace=wrap;html=1;fixedSize=1;fontFamily=Helvetica;fontSize=12;fontColor=#000000;align=center;strokeColor=#6c8ebf;fillColor=#dae8fc;" parent="1" vertex="1">
                    <mxGeometry x="520" y="600" width="80" height="80" as="geometry"/>
                </mxCell>
                <mxCell id="oQcBj8w5AE9Hj1fg7Yda-25" style="edgeStyle=orthogonalEdgeStyle;rounded=0;orthogonalLoop=1;jettySize=auto;html=1;" parent="1" source="oQcBj8w5AE9Hj1fg7Yda-13" target="oQcBj8w5AE9Hj1fg7Yda-24" edge="1">
                    <mxGeometry relative="1" as="geometry"/>
                </mxCell>
                <mxCell id="oQcBj8w5AE9Hj1fg7Yda-13" value="geOne&lt;br&gt;InsEvent" style="ellipse;whiteSpace=wrap;html=1;aspect=fixed;fillColor=#d5e8d4;strokeColor=#82b366;" parent="1" vertex="1">
                    <mxGeometry x="520" y="720" width="80" height="80" as="geometry"/>
                </mxCell>
                <mxCell id="1A5X8RSsKZ8tpH-_XPOV-2" style="edgeStyle=orthogonalEdgeStyle;curved=1;rounded=0;orthogonalLoop=1;jettySize=auto;html=1;entryX=0.5;entryY=0;entryDx=0;entryDy=0;exitX=0.5;exitY=1;exitDx=0;exitDy=0;" parent="1" source="oQcBj8w5AE9Hj1fg7Yda-17" target="oQcBj8w5AE9Hj1fg7Yda-43" edge="1">
                    <mxGeometry relative="1" as="geometry">
                        <Array as="points">
                            <mxPoint x="1140" y="1230"/>
                            <mxPoint x="920" y="1230"/>
                            <mxPoint x="920" y="990"/>
                            <mxPoint x="650" y="990"/>
                            <mxPoint x="650" y="820"/>
                            <mxPoint x="720" y="820"/>
                        </Array>
                    </mxGeometry>
                </mxCell>
                <mxCell id="gU132YgI8iGPf6BCtrAs-4" style="edgeStyle=orthogonalEdgeStyle;rounded=0;orthogonalLoop=1;jettySize=auto;html=1;curved=1;" parent="1" target="gU132YgI8iGPf6BCtrAs-3" edge="1">
                    <mxGeometry relative="1" as="geometry">
                        <mxPoint x="1140" y="1210" as="sourcePoint"/>
                    </mxGeometry>
                </mxCell>
                <mxCell id="oQcBj8w5AE9Hj1fg7Yda-17" value="get&lt;br&gt;Petition" style="shape=hexagon;perimeter=hexagonPerimeter2;whiteSpace=wrap;html=1;fixedSize=1;fontFamily=Helvetica;fontSize=12;fontColor=#000000;align=center;strokeColor=#000000;fillColor=#ffffff;" parent="1" vertex="1">
                    <mxGeometry x="1100" y="1130" width="80" height="80" as="geometry"/>
                </mxCell>
                <mxCell id="oQcBj8w5AE9Hj1fg7Yda-33" style="edgeStyle=orthogonalEdgeStyle;rounded=0;orthogonalLoop=1;jettySize=auto;html=1;entryX=0.5;entryY=0;entryDx=0;entryDy=0;curved=1;fillColor=#fff2cc;strokeColor=#d6b656;exitX=0.5;exitY=1;exitDx=0;exitDy=0;" parent="1" source="oQcBj8w5AE9Hj1fg7Yda-18" target="oQcBj8w5AE9Hj1fg7Yda-3" edge="1">
                    <mxGeometry relative="1" as="geometry">
                        <Array as="points">
                            <mxPoint x="920" y="750"/>
                            <mxPoint x="300" y="750"/>
                            <mxPoint x="300" y="330"/>
                            <mxPoint x="440" y="330"/>
                        </Array>
                    </mxGeometry>
                </mxCell>
                <mxCell id="oQcBj8w5AE9Hj1fg7Yda-37" style="edgeStyle=orthogonalEdgeStyle;rounded=0;orthogonalLoop=1;jettySize=auto;html=1;entryX=0.5;entryY=0;entryDx=0;entryDy=0;fillColor=#fff2cc;strokeColor=#d6b656;curved=1;" parent="1" source="oQcBj8w5AE9Hj1fg7Yda-18" target="oQcBj8w5AE9Hj1fg7Yda-38" edge="1">
                    <mxGeometry relative="1" as="geometry">
                        <mxPoint x="680" y="760" as="targetPoint"/>
                    </mxGeometry>
                </mxCell>
                <mxCell id="oQcBj8w5AE9Hj1fg7Yda-18" value="getVancancy" style="shape=hexagon;perimeter=hexagonPerimeter2;whiteSpace=wrap;html=1;fixedSize=1;fontFamily=Helvetica;fontSize=12;fontColor=#000000;align=center;strokeColor=#d6b656;fillColor=#fff2cc;" parent="1" vertex="1">
                    <mxGeometry x="880" y="590" width="80" height="80" as="geometry"/>
                </mxCell>
                <mxCell id="oQcBj8w5AE9Hj1fg7Yda-47" style="edgeStyle=orthogonalEdgeStyle;curved=1;rounded=0;orthogonalLoop=1;jettySize=auto;html=1;strokeColor=#82b366;fillColor=#d5e8d4;exitX=0.5;exitY=1;exitDx=0;exitDy=0;entryX=0.5;entryY=0;entryDx=0;entryDy=0;" parent="1" source="oQcBj8w5AE9Hj1fg7Yda-24" target="oQcBj8w5AE9Hj1fg7Yda-8" edge="1">
                    <mxGeometry relative="1" as="geometry">
                        <mxPoint x="530" y="668" as="targetPoint"/>
                        <Array as="points">
                            <mxPoint x="560" y="930"/>
                            <mxPoint x="470" y="930"/>
                            <mxPoint x="470" y="580"/>
                            <mxPoint x="560" y="580"/>
                        </Array>
                    </mxGeometry>
                </mxCell>
                <mxCell id="1A5X8RSsKZ8tpH-_XPOV-8" style="edgeStyle=orthogonalEdgeStyle;curved=1;rounded=0;orthogonalLoop=1;jettySize=auto;html=1;" parent="1" source="oQcBj8w5AE9Hj1fg7Yda-24" target="1A5X8RSsKZ8tpH-_XPOV-7" edge="1">
                    <mxGeometry relative="1" as="geometry"/>
                </mxCell>
                <mxCell id="oQcBj8w5AE9Hj1fg7Yda-24" value="get&lt;br&gt;InsEvent" style="shape=hexagon;perimeter=hexagonPerimeter2;whiteSpace=wrap;html=1;fixedSize=1;fontFamily=Helvetica;fontSize=12;fontColor=#000000;align=center;strokeColor=#82b366;fillColor=#d5e8d4;" parent="1" vertex="1">
                    <mxGeometry x="520" y="840" width="80" height="80" as="geometry"/>
                </mxCell>
                <mxCell id="oQcBj8w5AE9Hj1fg7Yda-32" style="edgeStyle=orthogonalEdgeStyle;rounded=0;orthogonalLoop=1;jettySize=auto;html=1;curved=1;fillColor=#e1d5e7;strokeColor=#9673a6;entryX=0.5;entryY=0;entryDx=0;entryDy=0;" parent="1" source="oQcBj8w5AE9Hj1fg7Yda-28" target="oQcBj8w5AE9Hj1fg7Yda-18" edge="1">
                    <mxGeometry relative="1" as="geometry">
                        <mxPoint x="892" y="668" as="targetPoint"/>
                        <Array as="points">
                            <mxPoint x="750" y="1430"/>
                            <mxPoint x="630" y="1430"/>
                            <mxPoint x="630" y="560"/>
                            <mxPoint x="920" y="560"/>
                        </Array>
                    </mxGeometry>
                </mxCell>
                <mxCell id="oQcBj8w5AE9Hj1fg7Yda-34" style="edgeStyle=orthogonalEdgeStyle;rounded=0;orthogonalLoop=1;jettySize=auto;html=1;entryX=0.5;entryY=0;entryDx=0;entryDy=0;curved=1;fillColor=#e1d5e7;strokeColor=#9673a6;exitX=0.5;exitY=1;exitDx=0;exitDy=0;" parent="1" source="oQcBj8w5AE9Hj1fg7Yda-28" target="oQcBj8w5AE9Hj1fg7Yda-24" edge="1">
                    <mxGeometry relative="1" as="geometry">
                        <Array as="points">
                            <mxPoint x="750" y="1430"/>
                            <mxPoint x="470" y="1430"/>
                            <mxPoint x="470" y="800"/>
                            <mxPoint x="560" y="800"/>
                        </Array>
                    </mxGeometry>
                </mxCell>
                <mxCell id="oQcBj8w5AE9Hj1fg7Yda-36" style="edgeStyle=orthogonalEdgeStyle;rounded=0;orthogonalLoop=1;jettySize=auto;html=1;curved=1;fillColor=#e1d5e7;strokeColor=#9673a6;entryX=0.5;entryY=0;entryDx=0;entryDy=0;exitX=0.5;exitY=1;exitDx=0;exitDy=0;" parent="1" source="oQcBj8w5AE9Hj1fg7Yda-28" target="oQcBj8w5AE9Hj1fg7Yda-35" edge="1">
                    <mxGeometry relative="1" as="geometry">
                        <Array as="points">
                            <mxPoint x="750" y="1440"/>
                            <mxPoint x="70" y="1440"/>
                            <mxPoint x="70" y="1030"/>
                            <mxPoint x="180" y="1030"/>
                        </Array>
                    </mxGeometry>
                </mxCell>
                <mxCell id="k4yr0nP7hURaoWLf_fMc-5" style="edgeStyle=orthogonalEdgeStyle;rounded=0;orthogonalLoop=1;jettySize=auto;html=1;curved=1;" parent="1" target="k4yr0nP7hURaoWLf_fMc-1" edge="1">
                    <mxGeometry relative="1" as="geometry">
                        <mxPoint x="750" y="1300" as="sourcePoint"/>
                        <Array as="points">
                            <mxPoint x="750" y="1330"/>
                            <mxPoint x="860" y="1330"/>
                        </Array>
                    </mxGeometry>
                </mxCell>
                <mxCell id="oQcBj8w5AE9Hj1fg7Yda-28" value="get&lt;br&gt;Inscription" style="shape=hexagon;perimeter=hexagonPerimeter2;whiteSpace=wrap;html=1;fixedSize=1;fontFamily=Helvetica;fontSize=12;fontColor=#000000;align=center;strokeColor=#9673a6;fillColor=#e1d5e7;" parent="1" vertex="1">
                    <mxGeometry x="710" y="1220" width="80" height="80" as="geometry"/>
                </mxCell>
                <mxCell id="oQcBj8w5AE9Hj1fg7Yda-31" style="edgeStyle=orthogonalEdgeStyle;rounded=0;orthogonalLoop=1;jettySize=auto;html=1;curved=1;entryX=0.5;entryY=0;entryDx=0;entryDy=0;exitX=0.5;exitY=1;exitDx=0;exitDy=0;" parent="1" source="oQcBj8w5AE9Hj1fg7Yda-29" target="oQcBj8w5AE9Hj1fg7Yda-28" edge="1">
                    <mxGeometry relative="1" as="geometry"/>
                </mxCell>
                <mxCell id="oQcBj8w5AE9Hj1fg7Yda-29" value="getMany&lt;br&gt;Inscription&lt;br&gt;ie_id" style="ellipse;whiteSpace=wrap;html=1;aspect=fixed;fillColor=#e1d5e7;strokeColor=#9673a6;" parent="1" vertex="1">
                    <mxGeometry x="670" y="1060" width="80" height="80" as="geometry"/>
                </mxCell>
                <mxCell id="oQcBj8w5AE9Hj1fg7Yda-35" value="get&lt;br&gt;Person" style="shape=hexagon;perimeter=hexagonPerimeter2;whiteSpace=wrap;html=1;fixedSize=1;fontFamily=Helvetica;fontSize=12;fontColor=#000000;align=center;strokeColor=#000000;fillColor=#ffffff;" parent="1" vertex="1">
                    <mxGeometry x="140" y="1080" width="80" height="80" as="geometry"/>
                </mxCell>
                <mxCell id="oQcBj8w5AE9Hj1fg7Yda-48" style="edgeStyle=orthogonalEdgeStyle;curved=1;rounded=0;orthogonalLoop=1;jettySize=auto;html=1;entryX=0.5;entryY=0;entryDx=0;entryDy=0;" parent="1" source="oQcBj8w5AE9Hj1fg7Yda-38" target="oQcBj8w5AE9Hj1fg7Yda-28" edge="1">
                    <mxGeometry relative="1" as="geometry"/>
                </mxCell>
                <mxCell id="oQcBj8w5AE9Hj1fg7Yda-38" value="getMany&lt;br&gt;Inscription&lt;br&gt;vac_id" style="ellipse;whiteSpace=wrap;html=1;aspect=fixed;fillColor=#e1d5e7;strokeColor=#9673a6;" parent="1" vertex="1">
                    <mxGeometry x="1000" y="680" width="80" height="80" as="geometry"/>
                </mxCell>
                <mxCell id="oQcBj8w5AE9Hj1fg7Yda-44" style="edgeStyle=orthogonalEdgeStyle;rounded=0;orthogonalLoop=1;jettySize=auto;html=1;entryX=0.5;entryY=0;entryDx=0;entryDy=0;" parent="1" source="oQcBj8w5AE9Hj1fg7Yda-40" target="oQcBj8w5AE9Hj1fg7Yda-43" edge="1">
                    <mxGeometry relative="1" as="geometry"/>
                </mxCell>
                <mxCell id="oQcBj8w5AE9Hj1fg7Yda-40" value="getOne&lt;br&gt;petEvent" style="ellipse;whiteSpace=wrap;html=1;aspect=fixed;fillColor=#f8cecc;strokeColor=#b85450;" parent="1" vertex="1">
                    <mxGeometry x="680" y="720" width="80" height="80" as="geometry"/>
                </mxCell>
                <mxCell id="oQcBj8w5AE9Hj1fg7Yda-53" style="edgeStyle=orthogonalEdgeStyle;curved=1;rounded=0;orthogonalLoop=1;jettySize=auto;html=1;entryX=0.5;entryY=0;entryDx=0;entryDy=0;strokeColor=#b85450;exitX=0.5;exitY=1;exitDx=0;exitDy=0;fillColor=#f8cecc;" parent="1" source="oQcBj8w5AE9Hj1fg7Yda-43" target="oQcBj8w5AE9Hj1fg7Yda-24" edge="1">
                    <mxGeometry relative="1" as="geometry">
                        <Array as="points">
                            <mxPoint x="720" y="970"/>
                            <mxPoint x="500" y="970"/>
                            <mxPoint x="500" y="810"/>
                            <mxPoint x="560" y="810"/>
                        </Array>
                    </mxGeometry>
                </mxCell>
                <mxCell id="oQcBj8w5AE9Hj1fg7Yda-56" style="edgeStyle=orthogonalEdgeStyle;curved=1;rounded=0;orthogonalLoop=1;jettySize=auto;html=1;strokeColor=#b85450;fillColor=#f8cecc;entryX=0.5;entryY=0;entryDx=0;entryDy=0;exitX=0.5;exitY=1;exitDx=0;exitDy=0;" parent="1" source="oQcBj8w5AE9Hj1fg7Yda-43" target="oQcBj8w5AE9Hj1fg7Yda-55" edge="1">
                    <mxGeometry relative="1" as="geometry"/>
                </mxCell>
                <mxCell id="oQcBj8w5AE9Hj1fg7Yda-58" style="edgeStyle=orthogonalEdgeStyle;curved=1;rounded=0;orthogonalLoop=1;jettySize=auto;html=1;entryX=0.5;entryY=0;entryDx=0;entryDy=0;strokeColor=#b85450;fillColor=#f8cecc;exitX=0.5;exitY=1;exitDx=0;exitDy=0;" parent="1" source="oQcBj8w5AE9Hj1fg7Yda-43" target="oQcBj8w5AE9Hj1fg7Yda-8" edge="1">
                    <mxGeometry relative="1" as="geometry">
                        <Array as="points">
                            <mxPoint x="720" y="970"/>
                            <mxPoint x="450" y="970"/>
                            <mxPoint x="450" y="570"/>
                            <mxPoint x="560" y="570"/>
                        </Array>
                    </mxGeometry>
                </mxCell>
                <mxCell id="oQcBj8w5AE9Hj1fg7Yda-43" value="get&lt;br&gt;petEvent" style="shape=hexagon;perimeter=hexagonPerimeter2;whiteSpace=wrap;html=1;fixedSize=1;fontFamily=Helvetica;fontSize=12;fontColor=#000000;align=center;strokeColor=#b85450;fillColor=#f8cecc;" parent="1" vertex="1">
                    <mxGeometry x="680" y="840" width="80" height="80" as="geometry"/>
                </mxCell>
                <mxCell id="oQcBj8w5AE9Hj1fg7Yda-52" style="edgeStyle=orthogonalEdgeStyle;curved=1;rounded=0;orthogonalLoop=1;jettySize=auto;html=1;strokeColor=#82b366;fillColor=#d5e8d4;exitX=0.5;exitY=1;exitDx=0;exitDy=0;" parent="1" source="oQcBj8w5AE9Hj1fg7Yda-24" target="oQcBj8w5AE9Hj1fg7Yda-29" edge="1">
                    <mxGeometry relative="1" as="geometry"/>
                </mxCell>
                <mxCell id="oQcBj8w5AE9Hj1fg7Yda-57" style="edgeStyle=orthogonalEdgeStyle;curved=1;rounded=0;orthogonalLoop=1;jettySize=auto;html=1;entryX=0.5;entryY=0;entryDx=0;entryDy=0;strokeColor=#000000;" parent="1" source="oQcBj8w5AE9Hj1fg7Yda-55" target="oQcBj8w5AE9Hj1fg7Yda-17" edge="1">
                    <mxGeometry relative="1" as="geometry"/>
                </mxCell>
                <mxCell id="oQcBj8w5AE9Hj1fg7Yda-55" value="getMany&lt;br&gt;Petition" style="ellipse;whiteSpace=wrap;html=1;aspect=fixed;" parent="1" vertex="1">
                    <mxGeometry x="1100" y="1020" width="80" height="80" as="geometry"/>
                </mxCell>
                <mxCell id="oQcBj8w5AE9Hj1fg7Yda-11" style="edgeStyle=orthogonalEdgeStyle;rounded=0;orthogonalLoop=1;jettySize=auto;html=1;strokeColor=#7EA6E0;curved=1;exitX=0.5;exitY=1;exitDx=0;exitDy=0;entryX=0.5;entryY=0;entryDx=0;entryDy=0;" parent="1" source="oQcBj8w5AE9Hj1fg7Yda-8" target="oQcBj8w5AE9Hj1fg7Yda-3" edge="1">
                    <mxGeometry relative="1" as="geometry">
                        <Array as="points">
                            <mxPoint x="560" y="710"/>
                            <mxPoint x="340" y="710"/>
                            <mxPoint x="340" y="340"/>
                            <mxPoint x="440" y="340"/>
                        </Array>
                    </mxGeometry>
                </mxCell>
                <mxCell id="1A5X8RSsKZ8tpH-_XPOV-3" style="edgeStyle=orthogonalEdgeStyle;curved=1;rounded=0;orthogonalLoop=1;jettySize=auto;html=1;entryX=0.5;entryY=0;entryDx=0;entryDy=0;exitX=0.5;exitY=1;exitDx=0;exitDy=0;" parent="1" source="oQcBj8w5AE9Hj1fg7Yda-17" target="oQcBj8w5AE9Hj1fg7Yda-28" edge="1">
                    <mxGeometry relative="1" as="geometry">
                        <Array as="points">
                            <mxPoint x="1140" y="1260"/>
                            <mxPoint x="910" y="1260"/>
                            <mxPoint x="910" y="1170"/>
                            <mxPoint x="750" y="1170"/>
                        </Array>
                    </mxGeometry>
                </mxCell>
                <mxCell id="1A5X8RSsKZ8tpH-_XPOV-9" style="edgeStyle=orthogonalEdgeStyle;curved=1;rounded=0;orthogonalLoop=1;jettySize=auto;html=1;" parent="1" source="1A5X8RSsKZ8tpH-_XPOV-7" edge="1">
                    <mxGeometry relative="1" as="geometry">
                        <mxPoint x="750" y="1220" as="targetPoint"/>
                        <Array as="points">
                            <mxPoint x="670" y="1100"/>
                            <mxPoint x="670" y="1180"/>
                            <mxPoint x="750" y="1180"/>
                        </Array>
                    </mxGeometry>
                </mxCell>
                <mxCell id="1A5X8RSsKZ8tpH-_XPOV-7" value="getMany&lt;br&gt;MyInscription&lt;br&gt;ie_id" style="ellipse;whiteSpace=wrap;html=1;aspect=fixed;fillColor=#e1d5e7;strokeColor=#9673a6;" parent="1" vertex="1">
                    <mxGeometry x="550" y="1060" width="80" height="80" as="geometry"/>
                </mxCell>
                <mxCell id="k4yr0nP7hURaoWLf_fMc-6" style="edgeStyle=orthogonalEdgeStyle;rounded=0;orthogonalLoop=1;jettySize=auto;html=1;curved=1;exitX=0.5;exitY=1;exitDx=0;exitDy=0;" parent="1" source="k4yr0nP7hURaoWLf_fMc-1" target="k4yr0nP7hURaoWLf_fMc-2" edge="1">
                    <mxGeometry relative="1" as="geometry"/>
                </mxCell>
                <mxCell id="k4yr0nP7hURaoWLf_fMc-7" style="edgeStyle=orthogonalEdgeStyle;rounded=0;orthogonalLoop=1;jettySize=auto;html=1;" parent="1" source="k4yr0nP7hURaoWLf_fMc-1" target="k4yr0nP7hURaoWLf_fMc-3" edge="1">
                    <mxGeometry relative="1" as="geometry"/>
                </mxCell>
                <mxCell id="k4yr0nP7hURaoWLf_fMc-8" style="edgeStyle=orthogonalEdgeStyle;rounded=0;orthogonalLoop=1;jettySize=auto;html=1;curved=1;exitX=0.5;exitY=1;exitDx=0;exitDy=0;" parent="1" source="k4yr0nP7hURaoWLf_fMc-1" target="k4yr0nP7hURaoWLf_fMc-4" edge="1">
                    <mxGeometry relative="1" as="geometry"/>
                </mxCell>
                <mxCell id="k4yr0nP7hURaoWLf_fMc-1" value="get&lt;br&gt;Vacancy" style="shape=hexagon;perimeter=hexagonPerimeter2;whiteSpace=wrap;html=1;fixedSize=1;fontFamily=Helvetica;fontSize=12;fontColor=#000000;align=center;strokeColor=#000000;fillColor=#ffffff;" parent="1" vertex="1">
                    <mxGeometry x="820" y="1390" width="80" height="80" as="geometry"/>
                </mxCell>
                <mxCell id="k4yr0nP7hURaoWLf_fMc-2" value="get&lt;br&gt;Assignment" style="shape=hexagon;perimeter=hexagonPerimeter2;whiteSpace=wrap;html=1;fixedSize=1;fontFamily=Helvetica;fontSize=12;fontColor=#000000;align=center;strokeColor=#000000;fillColor=#ffffff;" parent="1" vertex="1">
                    <mxGeometry x="710" y="1540" width="80" height="80" as="geometry"/>
                </mxCell>
                <mxCell id="k4yr0nP7hURaoWLf_fMc-3" value="get&lt;br&gt;Region" style="shape=hexagon;perimeter=hexagonPerimeter2;whiteSpace=wrap;html=1;fixedSize=1;fontFamily=Helvetica;fontSize=12;fontColor=#000000;align=center;strokeColor=#000000;fillColor=#ffffff;" parent="1" vertex="1">
                    <mxGeometry x="820" y="1540" width="80" height="80" as="geometry"/>
                </mxCell>
                <mxCell id="k4yr0nP7hURaoWLf_fMc-4" value="get&lt;br&gt;Restriction" style="shape=hexagon;perimeter=hexagonPerimeter2;whiteSpace=wrap;html=1;fixedSize=1;fontFamily=Helvetica;fontSize=12;fontColor=#000000;align=center;strokeColor=#000000;fillColor=#ffffff;" parent="1" vertex="1">
                    <mxGeometry x="930" y="1540" width="80" height="80" as="geometry"/>
                </mxCell>
                <mxCell id="gU132YgI8iGPf6BCtrAs-1" value="get&lt;br&gt;PetitionReply" style="shape=hexagon;perimeter=hexagonPerimeter2;whiteSpace=wrap;html=1;fixedSize=1;fontFamily=Helvetica;fontSize=12;align=center;strokeColor=#b85450;fillColor=#f8cecc;" parent="1" vertex="1">
                    <mxGeometry x="1160" y="1400" width="80" height="80" as="geometry"/>
                </mxCell>
                <mxCell id="gU132YgI8iGPf6BCtrAs-5" style="edgeStyle=orthogonalEdgeStyle;curved=1;rounded=0;orthogonalLoop=1;jettySize=auto;html=1;" parent="1" source="gU132YgI8iGPf6BCtrAs-3" target="gU132YgI8iGPf6BCtrAs-1" edge="1">
                    <mxGeometry relative="1" as="geometry"/>
                </mxCell>
                <mxCell id="gU132YgI8iGPf6BCtrAs-3" value="getOne&lt;br&gt;PetitionReply&lt;br&gt;p_id" style="ellipse;whiteSpace=wrap;html=1;aspect=fixed;fillColor=#f8cecc;strokeColor=#b85450;" parent="1" vertex="1">
                    <mxGeometry x="1160" y="1280" width="80" height="80" as="geometry"/>
                </mxCell>
            </root>
        </mxGraphModel>
    </diagram>
</mxfile>